<?xml version="1.0" standalone="no"?>
<!DOCTYPE svg PUBLIC "-//W3C//DTD SVG 20010904//EN"
 "http://www.w3.org/TR/2001/REC-SVG-20010904/DTD/svg10.dtd">
<svg version="1.0" xmlns="http://www.w3.org/2000/svg"
 width="512.000000pt" height="512.000000pt" viewBox="0 0 512.000000 512.000000"
 preserveAspectRatio="xMidYMid meet">
<metadata>
Created by potrace 1.11, written by Peter Selinger 2001-2013
</metadata>
<g transform="translate(0.000000,512.000000) scale(0.100000,-0.100000)"
fill="#000000" stroke="none">
<path d="M1600 4320 l0 -160 -160 0 -160 0 0 -160 0 -160 -160 0 -160 0 0
-320 0 -320 -160 0 -160 0 0 -480 0 -480 160 0 160 0 0 -320 0 -320 160 0 160
0 0 -160 0 -160 160 0 160 0 0 -160 0 -160 160 0 160 0 0 -160 0 -160 800 0
800 0 0 160 0 160 160 0 160 0 0 160 0 160 160 0 160 0 0 160 0 160 160 0 160
0 0 960 0 960 -160 0 -160 0 0 160 0 160 -160 0 -160 0 0 160 0 160 -160 0
-160 0 0 160 0 160 -960 0 -960 0 0 -160z m640 -960 l0 -160 640 0 640 0 0
-160 0 -160 160 0 160 0 0 160 0 160 160 0 160 0 0 -800 0 -800 -160 0 -160 0
0 -160 0 -160 -160 0 -160 0 0 -160 0 -160 -800 0 -800 0 0 160 0 160 -160 0
-160 0 0 160 0 160 -160 0 -160 0 0 320 0 320 -160 0 -160 0 2 318 3 317 158
3 157 3 0 159 0 160 160 0 160 0 0 -160 0 -160 160 0 160 0 0 320 0 320 160 0
160 0 0 -160z"/>
<path d="M2560 2240 l0 -320 320 0 320 0 0 320 0 320 -320 0 -320 0 0 -320z"/>
<path d="M3520 2240 l0 -320 160 0 160 0 0 320 0 320 -160 0 -160 0 0 -320z"/>
<path d="M1920 1760 l0 -160 160 0 160 0 0 -160 0 -160 640 0 640 0 0 160 0
160 -640 0 -640 0 0 160 0 160 -160 0 -160 0 0 -160z"/>
</g>
</svg>
